<svg width="26" height="26" viewBox="0 0 26 26" fill="none" xmlns="http://www.w3.org/2000/svg">
<g clip-path="url(#clip0_1469_596)">
<path d="M25.4562 6.70131C25.1572 5.57572 24.2764 4.68848 23.1573 4.38731C21.1304 3.84131 13 3.84131 13 3.84131C13 3.84131 4.86958 3.84131 2.84158 4.38731C1.72358 4.68848 0.842833 5.57464 0.543833 6.70131C0 8.74231 0 12.9998 0 12.9998C0 12.9998 0 17.2573 0.543833 19.2983C0.842833 20.4239 1.72358 21.3111 2.84267 21.6123C4.86958 22.1583 13 22.1583 13 22.1583C13 22.1583 21.1304 22.1583 23.1584 21.6123C24.2764 21.3111 25.1572 20.425 25.4572 19.2983C26 17.2573 26 12.9998 26 12.9998C26 12.9998 26 8.74231 25.4562 6.70131ZM10.3415 16.8662V9.13339L17.1362 12.9998L10.3415 16.8662Z" fill="#DE0202"/>
</g>
<defs>
<clipPath id="clip0_1469_596">
<rect width="26" height="26" fill="white"/>
</clipPath>
</defs>
</svg>
