<svg width="21" height="21" viewBox="0 0 21 21" fill="none" xmlns="http://www.w3.org/2000/svg">
<path fill-rule="evenodd" clip-rule="evenodd" d="M10.5 0C4.70138 0 0 4.61182 0 10.3C0 15.9882 4.70138 20.6 10.5 20.6C16.2986 20.6 21 15.9882 21 10.3C21 4.61182 16.2986 0 10.5 0ZM15.3668 7.00486C15.2093 8.63312 14.525 12.5857 14.1776 14.4097C14.0306 15.1822 13.7401 15.4406 13.4601 15.4654C12.8503 15.5204 12.3874 15.0698 11.7968 14.6904C10.8728 14.0964 10.3504 13.7265 9.4535 13.1462C8.41663 12.4759 9.08862 12.1076 9.67925 11.506C9.83413 11.348 12.5204 8.9507 12.5729 8.73354C12.579 8.70607 12.586 8.60479 12.5239 8.55157C12.4618 8.49836 12.3716 8.51638 12.3069 8.53097C12.2141 8.55157 10.738 9.50862 7.87763 11.4021C7.4585 11.6845 7.07875 11.8218 6.73838 11.815C6.36388 11.8072 5.64287 11.6072 5.1065 11.4356C4.44938 11.2261 3.92613 11.1146 3.97163 10.7592C3.99525 10.5738 4.25513 10.3841 4.75213 10.1901C7.81288 8.88203 9.85425 8.01941 10.8754 7.60226C13.7917 6.41261 14.3973 6.20575 14.7928 6.19888C15.288 6.19202 15.407 6.59286 15.3668 7.00486Z" fill="#0092D0"/>
</svg>
